<svg id="Layer_1" data-name="Layer 1" xmlns="http://www.w3.org/2000/svg" viewBox="0 0 1037 269.82"><defs><style>.cls-1{font-size:40px;font-family:Garde;}.cls-2,.cls-3,.cls-4{font-size:180px;}.cls-2{letter-spacing:-0.07em;}.cls-4{letter-spacing:-0.03em;}</style></defs><title>Logo</title><text class="cls-1" transform="translate(0 153)"> <tspan class="cls-2" x="20" y="0">A</tspan><tspan class="cls-3" x="194.06" y="0">NT</tspan><tspan class="cls-4" x="519.86" y="0">R</tspan><tspan class="cls-3" x="677.9" y="0">UM</tspan></text><path d="M66.76,190H47.16v50.4H40V190H20.36v-6.4h46.4Z" transform="translate(0 26.82)"/><path d="M113.48,234v6.4H74.92V183.6h37.84V190H82.12v18.4h26.64v6H82.12V234Z" transform="translate(0 26.82)"/><path d="M118.52,211.52a30,30,0,0,1,7.08-19.32,25.61,25.61,0,0,1,8.52-6.56,25.87,25.87,0,0,1,11.44-2.44,23.68,23.68,0,0,1,13,3.48,21.73,21.73,0,0,1,8.08,8.92L161,199.28a15.58,15.58,0,0,0-9.88-8.72,20.71,20.71,0,0,0-5.88-.88,17.65,17.65,0,0,0-8.36,1.92,18.63,18.63,0,0,0-6.12,5.12,22.72,22.72,0,0,0-3.72,7.16,26.38,26.38,0,0,0-1.24,8,24.61,24.61,0,0,0,1.48,8.48,23.44,23.44,0,0,0,4.12,7.2,20.11,20.11,0,0,0,6.24,5,16.92,16.92,0,0,0,7.84,1.84,19.28,19.28,0,0,0,6.08-1A18.43,18.43,0,0,0,157.4,230a15.48,15.48,0,0,0,4.32-5.72l6,3.28a17.92,17.92,0,0,1-5.44,7.2,26.4,26.4,0,0,1-8.2,4.48,28,28,0,0,1-8.92,1.52,23,23,0,0,1-10.72-2.52,27.51,27.51,0,0,1-8.44-6.72,31.79,31.79,0,0,1-5.52-9.44A30,30,0,0,1,118.52,211.52Z" transform="translate(0 26.82)"/><path d="M222.44,183.6v56.8h-7.2V214.56H184V240.4h-7.2V183.6H184v24.56h31.28V183.6Z" transform="translate(0 26.82)"/><path d="M243.24,196.88V240.4H236V183.6h6.08L276.84,228V183.68H284V240.4h-6.56Z" transform="translate(0 26.82)"/><path d="M320.68,240.8a24.31,24.31,0,0,1-10.88-2.4,26.35,26.35,0,0,1-8.44-6.52A30.58,30.58,0,0,1,294,212a29.2,29.2,0,0,1,2-10.84,30.12,30.12,0,0,1,5.68-9.2,27.41,27.41,0,0,1,8.52-6.4,24.15,24.15,0,0,1,10.64-2.36,23.7,23.7,0,0,1,10.88,2.48,26.87,26.87,0,0,1,8.4,6.64,31.17,31.17,0,0,1,5.44,9.28,29.89,29.89,0,0,1-5.72,30.52,27.1,27.1,0,0,1-8.52,6.36A24.43,24.43,0,0,1,320.68,240.8ZM301.24,212a25.43,25.43,0,0,0,1.4,8.36,23,23,0,0,0,4,7.16,19.25,19.25,0,0,0,6.16,5,17.29,17.29,0,0,0,8,1.84,17.07,17.07,0,0,0,8.16-1.92,19.26,19.26,0,0,0,6.12-5.12,23.3,23.3,0,0,0,3.84-7.2A25.65,25.65,0,0,0,340.2,212a25.1,25.1,0,0,0-1.4-8.32,23.26,23.26,0,0,0-4-7.16,19.09,19.09,0,0,0-6.16-5,17.2,17.2,0,0,0-7.88-1.8,17.4,17.4,0,0,0-8.16,1.88,18.76,18.76,0,0,0-6.12,5.08,24,24,0,0,0-3.88,7.16A24.76,24.76,0,0,0,301.24,212Z" transform="translate(0 26.82)"/><path d="M357.48,240.4V183.6h7.2V234h31.68v6.4Z" transform="translate(0 26.82)"/><path d="M425.48,240.8a24.31,24.31,0,0,1-10.88-2.4,26.35,26.35,0,0,1-8.44-6.52,30.58,30.58,0,0,1-7.4-19.88,29.2,29.2,0,0,1,2-10.84,30.12,30.12,0,0,1,5.68-9.2,27.3,27.3,0,0,1,8.52-6.4,24.15,24.15,0,0,1,10.64-2.36,23.73,23.73,0,0,1,10.88,2.48,26.87,26.87,0,0,1,8.4,6.64,31.38,31.38,0,0,1,5.44,9.28,29.89,29.89,0,0,1-5.72,30.52,27.1,27.1,0,0,1-8.52,6.36A24.43,24.43,0,0,1,425.48,240.8ZM406,212a25.17,25.17,0,0,0,1.4,8.36,23,23,0,0,0,4,7.16,19.14,19.14,0,0,0,6.16,5,17.26,17.26,0,0,0,8,1.84,17.07,17.07,0,0,0,8.16-1.92,19.26,19.26,0,0,0,6.12-5.12,23.3,23.3,0,0,0,3.84-7.2A25.65,25.65,0,0,0,445,212a25.1,25.1,0,0,0-1.4-8.32,23.47,23.47,0,0,0-4-7.16,19.09,19.09,0,0,0-6.16-5,18.4,18.4,0,0,0-16,.08,18.76,18.76,0,0,0-6.12,5.08,24,24,0,0,0-3.88,7.16A24.76,24.76,0,0,0,406,212Z" transform="translate(0 26.82)"/><path d="M485.08,240.8a22.78,22.78,0,0,1-10.44-2.44,27.59,27.59,0,0,1-8.44-6.56,31,31,0,0,1-5.6-9.28,29.16,29.16,0,0,1-2-10.68,30.1,30.1,0,0,1,7.56-20.08,25.8,25.8,0,0,1,8.4-6.28,24.34,24.34,0,0,1,10.52-2.28q8.24,0,13.6,3.44a22.17,22.17,0,0,1,8.08,9l-5.52,3.84a16.64,16.64,0,0,0-6.8-7.36,19.29,19.29,0,0,0-9.52-2.4,16.61,16.61,0,0,0-7.84,1.84,18.75,18.75,0,0,0-6,5,22.87,22.87,0,0,0-3.84,7.16,26.39,26.39,0,0,0-1.32,8.32,24.71,24.71,0,0,0,1.48,8.6,21.91,21.91,0,0,0,4.2,7.12,20.17,20.17,0,0,0,6.32,4.84,17.46,17.46,0,0,0,7.76,1.76,18.68,18.68,0,0,0,9.28-2.48,28.23,28.23,0,0,0,8.32-7.6v7.44Q495.56,240.8,485.08,240.8Zm17.28-23.28H490.12v-5.44h18.32V240.4h-6.08Z" transform="translate(0 26.82)"/><path d="M519.4,240.4V183.6h7.2v56.8Z" transform="translate(0 26.82)"/><path d="M578.76,234v6.4H540.2V183.6H578V190H547.4v18.4H574v6H547.4V234Z" transform="translate(0 26.82)"/><path d="M622,195.52a11.82,11.82,0,0,0-2.56-2.16,23.36,23.36,0,0,0-3.6-1.88,25.88,25.88,0,0,0-4.36-1.36,22.69,22.69,0,0,0-4.92-.52q-6.57,0-9.68,2.47a8.18,8.18,0,0,0-3.12,6.78,6.83,6.83,0,0,0,1.6,4.79,11.47,11.47,0,0,0,4.92,2.87q3.32,1.11,8.44,2.31a57.55,57.55,0,0,1,10.24,3.11,15.89,15.89,0,0,1,6.64,4.9,13.3,13.3,0,0,1,2.32,8.18,15.1,15.1,0,0,1-1.56,7.06A13.71,13.71,0,0,1,622,237a19.47,19.47,0,0,1-6.56,2.87,34.5,34.5,0,0,1-8.16.92,38.77,38.77,0,0,1-8.44-.92,36.27,36.27,0,0,1-7.8-2.68,33.07,33.07,0,0,1-6.88-4.4l3.44-6.08a17.64,17.64,0,0,0,3.32,2.68,31.39,31.39,0,0,0,4.64,2.44,31,31,0,0,0,5.64,1.8,28.61,28.61,0,0,0,6.24.68q6.08,0,9.44-2.19a7.18,7.18,0,0,0,3.36-6.41,7,7,0,0,0-1.88-5.1,14.24,14.24,0,0,0-5.56-3.19c-2.46-.86-5.44-1.71-9-2.56a62.28,62.28,0,0,1-9.68-3.15,13.45,13.45,0,0,1-5.88-4.51,12.34,12.34,0,0,1-2-7.26,15.53,15.53,0,0,1,2.64-9.17,16.22,16.22,0,0,1,7.28-5.67,27.34,27.34,0,0,1,10.48-1.91,30.73,30.73,0,0,1,7.16.8,28.89,28.89,0,0,1,6.2,2.24,27.4,27.4,0,0,1,5.28,3.44Z" transform="translate(0 26.82)"/></svg>