<svg id="a4b26174-696e-4603-b2d6-758ac1b6323a" data-name="Layer 1" xmlns="http://www.w3.org/2000/svg" viewBox="0 0 162 126.18"><title>antrum-icon</title><path d="M117,70l24.48,42.12h16.2q-.9-1.44-4-6.75T146.18,92.7q-4.32-7.38-9.09-15.57t-9-15.57q-4.23-7.38-7.29-12.69T117,42.12l-35.28,61.2L68.6,126.18H20q1.08-1.62,4.68-8t8.91-15.57q5.31-9.18,11.79-20.43t13-22.59q7.74-13.5,16.2-28.35T92.72,0h16.2L75.44,58,44.3,112.14H60.5q8.28-14.58,15.3-26.73T89.39,61.92l13.23-22.86q6.66-11.52,14.4-25,.18.36,3.15,5.4t7.56,13q4.59,7.92,10.35,18t11.79,20.43q6,10.35,11.79,20.34t10.26,17.73q4.5,7.74,10.08,17.28H133.4L108.92,84.06Z" transform="translate(-20 0)"/></svg>