<?xml version="1.0" encoding="utf-8"?>
<!-- Generator: Adobe Illustrator 24.0.2, SVG Export Plug-In . SVG Version: 6.00 Build 0)  -->
<svg version="1.1" id="Layer_1" xmlns="http://www.w3.org/2000/svg" xmlns:xlink="http://www.w3.org/1999/xlink" x="0px" y="0px"
	 viewBox="0 0 2660 1071" style="enable-background:new 0 0 2660 1071;" xml:space="preserve">
<style type="text/css">
	.st0{fill:#6E64FF;stroke:#6E64FF;stroke-width:0.1;}
	.st1{fill:none;stroke:#1B1940;stroke-width:45;stroke-miterlimit:10;}
	.st2{fill:none;stroke:#6E64FF;stroke-width:55;stroke-miterlimit:10;}
	.st3{fill:none;stroke:#000000;stroke-width:2;stroke-miterlimit:10;stroke-dasharray:2,6;}
	.st4{fill:#1B1940;stroke:#1B1940;stroke-width:0.1;}
	.st5{fill:none;stroke:#6E64FF;stroke-width:45;stroke-miterlimit:10;}
	.st6{fill:none;}
	.st7{fill:#6E64FF;}
	.st8{font-family:'Righteous-Regular';}
	.st9{font-size:450px;}
	.st10{fill:#1B1940;}
	.st11{font-size:335px;}
</style>
<g>
	<path pointer-events="all" class="st0" d="M427.6,460.9v270.2c0,12.4-10.1,22.5-22.5,22.5l0,0c-12.4,0-22.5-10.1-22.5-22.5V460.9
		c0-12.4,10.1-22.5,22.5-22.5l0,0C417.5,438.4,427.6,448.5,427.6,460.9z"/>
	<path pointer-events="all" class="st0" d="M245.1,460.9v270.2c0,12.4-10.1,22.5-22.5,22.5l0,0c-12.4,0-22.5-10.1-22.5-22.5V460.9
		c0-12.4,10.1-22.5,22.5-22.5l0,0C235,438.4,245.1,448.5,245.1,460.9z"/>
	<path pointer-events="all" class="st0" d="M427.6,460.9v270.2c0,12.4-10.1,22.5-22.5,22.5l0,0c-12.4,0-22.5-10.1-22.5-22.5V460.9
		c0-12.4,10.1-22.5,22.5-22.5l0,0C417.5,438.4,427.6,448.5,427.6,460.9z"/>
	<path pointer-events="stroke" class="st1" d="M222.5,1047.5v-425"/>
	<path pointer-events="all" class="st2" d="M91.6,272.5c0-135.3,98.1-245,219-245s219,109.7,219,245"/>
	<path pointer-events="stroke" class="st2" d="M91.6,640.5l-0.1-371"/>
	<path pointer-events="stroke" class="st2" d="M529.4,640.5l0.2-371"/>
	<path pointer-events="stroke" class="st1" d="M405.5,917.5v-295"/>
	<path pointer-events="stroke" class="st3" d="M241.5,627.5h70"/>
	<path pointer-events="all" class="st4" d="M33.5,597.5h554c18.2,0,33,14.8,33,33l0,0c0,18.2-14.8,33-33,33h-554
		c-18.2,0-33-14.8-33-33l0,0C0.5,612.3,15.3,597.5,33.5,597.5z"/>
	<path pointer-events="all" class="st0" d="M396.2,480.9H225c-12.4,0-22.5-10.1-22.5-22.5l0,0c0-12.4,10.1-22.5,22.5-22.5h171.2
		c12.4,0,22.5,10.1,22.5,22.5l0,0C418.7,470.8,408.6,480.9,396.2,480.9z"/>
	<path pointer-events="all" class="st5" d="M222.5,252.5c0-57.6,41.7-104.4,93.6-105"/>
	<path pointer-events="all" class="st0" d="M348.2,359.5H225c-12.4,0-22.5-10.1-22.5-22.5l0,0c0-12.4,10.1-22.5,22.5-22.5h123.2
		c12.4,0,22.5,10.1,22.5,22.5l0,0C370.7,349.4,360.6,359.5,348.2,359.5z"/>
	<rect x="584.5" y="137.5" pointer-events="all" class="st6" width="1320" height="580"/>
	<g transform="translate(-0.5 -0.5)">
		<text transform="matrix(1 0 0 1 621 597.9999)" class="st7 st8 st9">ntrum</text>
	</g>
	<rect x="619.5" y="559.5" pointer-events="all" class="st6" width="2040" height="420"/>
	<g transform="translate(-0.5 -0.5)">
		<text transform="matrix(1 0 0 1 640.0139 893.0728)" class="st10 st8 st11">Technologies</text>
	</g>
	<path pointer-events="stroke" class="st1" d="M383,937.2h1720.6"/>
	<path pointer-events="all" class="st0" d="M245.1,254.9v82.2c0,12.4-10.1,22.5-22.5,22.5l0,0c-12.4,0-22.5-10.1-22.5-22.5v-82.2
		c0-12.4,10.1-22.5,22.5-22.5l0,0C235,232.4,245.1,242.5,245.1,254.9z"/>
	
		<rect x="2103.4" y="958.1" transform="matrix(0.9833 -0.1822 0.1822 0.9833 -139.4075 400.0349)" class="st10" width="7.3" height="1"/>
</g>
</svg>
